# xmcd
#
# Track frame offsets: 
#        150
#        14602
#        33687
#        49040
#        63597
#        88407
#        107478
#        121769
#        137112
#        151279
#        170407
#        183213
#        199443
#        213258
#        238013
#        251685
#        277243
#        291608
#
# Disc length: 4153 seconds
#
# Revision: 0
# Processed by: cddbd v1.5.2PL0 Copyright (c) Steve Scherf et al.
# Submitted via: ExactAudioCopy v0.99pb5
#
DISCID=19103712
DTITLE=The Smokin' Joe Kubek Band - Served Up texas Style
DYEAR=1998
DGENRE=Blues
TTITLE0=Seems Like A Million Years
TTITLE1=Texas Cadillac
TTITLE2=Come By Here
TTITLE3=Steppin' Out
TTITLE4=Just For A Little While
TTITLE5=Step On It
TTITLE6=You're My Brand
TTITLE7=Come By Here
TTITLE8=Serve
TTITLE9=Texas Cadillac
TTITLE10=Comin' Home Today
TTITLE11=Natural Born Lover
TTITLE12=Everybody's Talkin'
TTITLE13=Square Bizness
TTITLE14=Hands on It
TTITLE15=Smokin' Joe's Cafe
TTITLE16=Steppin' Out
TTITLE17=Lonely Days
EXTD=
EXTT0=
EXTT1=
EXTT2=
EXTT3=
EXTT4=
EXTT5=
EXTT6=
EXTT7=
EXTT8=
EXTT9=
EXTT10=
EXTT11=
EXTT12=
EXTT13=
EXTT14=
EXTT15=
EXTT16=
EXTT17=
PLAYORDER=
